<mxfile host="Electron" agent="Mozilla/5.0 (Windows NT 10.0; Win64; x64) AppleWebKit/537.36 (KHTML, like Gecko) draw.io/26.0.16 Chrome/132.0.6834.196 Electron/34.2.0 Safari/537.36" version="26.0.16">
  <diagram name="Page-1" id="Bj0_QASdARDf9qRqiEjv">
    <mxGraphModel dx="7810" dy="5372" grid="1" gridSize="10" guides="1" tooltips="1" connect="1" arrows="1" fold="1" page="1" pageScale="1" pageWidth="1169" pageHeight="827" math="0" shadow="0">
      <root>
        <mxCell id="0" />
        <mxCell id="1" parent="0" />
        <mxCell id="T4cP6CTTyvv2BIqYkuLx-74" value="" style="rounded=0;whiteSpace=wrap;html=1;fontFamily=Helvetica;fontSize=11;fontColor=default;labelBackgroundColor=default;strokeColor=none;" vertex="1" parent="1">
          <mxGeometry x="30" y="-520" width="750" height="320" as="geometry" />
        </mxCell>
        <mxCell id="T4cP6CTTyvv2BIqYkuLx-50" value="Legend" style="rounded=1;whiteSpace=wrap;html=1;fontFamily=Helvetica;fontSize=12;fontColor=#333333;labelBackgroundColor=default;verticalAlign=middle;align=left;spacingLeft=10;dashed=1;strokeColor=#666666;spacingTop=0;" vertex="1" parent="1">
          <mxGeometry x="215" y="-250" width="350" height="40" as="geometry" />
        </mxCell>
        <mxCell id="btaBWANVYXcahimvtC95-86" value="Fully&lt;div&gt;Aggre-&lt;/div&gt;&lt;div&gt;&lt;span style=&quot;background-color: transparent; color: light-dark(rgb(0, 0, 0), rgb(255, 255, 255));&quot;&gt;gated&lt;/span&gt;&lt;/div&gt;" style="rounded=0;whiteSpace=wrap;html=1;verticalAlign=middle;fillColor=none;dashed=1;dashPattern=8 8;align=left;spacingLeft=8;" parent="1" vertex="1">
          <mxGeometry x="700" y="850" width="150" height="180" as="geometry" />
        </mxCell>
        <mxCell id="btaBWANVYXcahimvtC95-52" value="Fully Aggregated" style="rounded=0;whiteSpace=wrap;html=1;verticalAlign=top;fillColor=none;dashed=1;dashPattern=8 8;" parent="1" vertex="1">
          <mxGeometry x="550" y="550" width="220" height="100" as="geometry" />
        </mxCell>
        <mxCell id="btaBWANVYXcahimvtC95-1" value="VC 2" style="ellipse;whiteSpace=wrap;html=1;aspect=fixed;" parent="1" vertex="1">
          <mxGeometry x="380" y="320" width="60" height="60" as="geometry" />
        </mxCell>
        <mxCell id="btaBWANVYXcahimvtC95-6" style="rounded=0;orthogonalLoop=1;jettySize=auto;html=1;edgeStyle=orthogonalEdgeStyle;entryX=0;entryY=0.5;entryDx=0;entryDy=0;dashed=1;" parent="1" source="btaBWANVYXcahimvtC95-2" target="btaBWANVYXcahimvtC95-5" edge="1">
          <mxGeometry relative="1" as="geometry" />
        </mxCell>
        <mxCell id="btaBWANVYXcahimvtC95-8" value="2011&lt;div&gt;$ 1mi&lt;/div&gt;" style="edgeLabel;html=1;align=center;verticalAlign=middle;resizable=0;points=[];" parent="btaBWANVYXcahimvtC95-6" vertex="1" connectable="0">
          <mxGeometry x="-0.2163" relative="1" as="geometry">
            <mxPoint x="-2" y="-5" as="offset" />
          </mxGeometry>
        </mxCell>
        <mxCell id="btaBWANVYXcahimvtC95-2" value="VC 1" style="ellipse;whiteSpace=wrap;html=1;aspect=fixed;" parent="1" vertex="1">
          <mxGeometry x="280" y="320" width="60" height="60" as="geometry" />
        </mxCell>
        <mxCell id="btaBWANVYXcahimvtC95-5" value="Startup" style="shape=label;whiteSpace=wrap;html=1;fixedSize=1;rounded=1;" parent="1" vertex="1">
          <mxGeometry x="330" y="410" width="60" height="30" as="geometry" />
        </mxCell>
        <mxCell id="btaBWANVYXcahimvtC95-7" style="rounded=0;orthogonalLoop=1;jettySize=auto;html=1;edgeStyle=orthogonalEdgeStyle;entryX=1;entryY=0.5;entryDx=0;entryDy=0;dashed=1;" parent="1" source="btaBWANVYXcahimvtC95-1" target="btaBWANVYXcahimvtC95-5" edge="1">
          <mxGeometry relative="1" as="geometry">
            <mxPoint x="270" y="387" as="sourcePoint" />
            <mxPoint x="353" y="460" as="targetPoint" />
          </mxGeometry>
        </mxCell>
        <mxCell id="btaBWANVYXcahimvtC95-9" value="2017&lt;div&gt;$ 2mi&lt;/div&gt;" style="edgeLabel;html=1;align=center;verticalAlign=middle;resizable=0;points=[];" parent="btaBWANVYXcahimvtC95-7" vertex="1" connectable="0">
          <mxGeometry x="-0.1739" relative="1" as="geometry">
            <mxPoint x="-1" y="-7" as="offset" />
          </mxGeometry>
        </mxCell>
        <mxCell id="btaBWANVYXcahimvtC95-11" style="edgeStyle=orthogonalEdgeStyle;rounded=0;orthogonalLoop=1;jettySize=auto;html=1;endArrow=oval;startFill=1;startArrow=oval;endFill=1;" parent="1" source="btaBWANVYXcahimvtC95-13" target="btaBWANVYXcahimvtC95-10" edge="1">
          <mxGeometry relative="1" as="geometry" />
        </mxCell>
        <mxCell id="btaBWANVYXcahimvtC95-12" value="Edge" style="edgeLabel;html=1;align=center;verticalAlign=middle;resizable=0;points=[];" parent="btaBWANVYXcahimvtC95-11" vertex="1" connectable="0">
          <mxGeometry x="-0.0597" y="2" relative="1" as="geometry">
            <mxPoint x="2" y="2" as="offset" />
          </mxGeometry>
        </mxCell>
        <mxCell id="btaBWANVYXcahimvtC95-13" value="Node 1" style="ellipse;whiteSpace=wrap;html=1;aspect=fixed;" parent="1" vertex="1">
          <mxGeometry x="580" y="320" width="60" height="60" as="geometry" />
        </mxCell>
        <mxCell id="btaBWANVYXcahimvtC95-14" value="" style="shape=flexArrow;endArrow=classic;html=1;rounded=0;" parent="1" edge="1">
          <mxGeometry width="50" height="50" relative="1" as="geometry">
            <mxPoint x="460" y="349.66" as="sourcePoint" />
            <mxPoint x="560" y="350" as="targetPoint" />
          </mxGeometry>
        </mxCell>
        <mxCell id="btaBWANVYXcahimvtC95-15" value="VC 1" style="text;html=1;align=center;verticalAlign=middle;whiteSpace=wrap;rounded=0;" parent="1" vertex="1">
          <mxGeometry x="580" y="380" width="60" height="30" as="geometry" />
        </mxCell>
        <mxCell id="btaBWANVYXcahimvtC95-16" value="VC 2" style="text;html=1;align=center;verticalAlign=middle;whiteSpace=wrap;rounded=0;" parent="1" vertex="1">
          <mxGeometry x="700" y="380" width="60" height="30" as="geometry" />
        </mxCell>
        <mxCell id="btaBWANVYXcahimvtC95-17" value="Observed phenomena" style="text;html=1;align=center;verticalAlign=middle;whiteSpace=wrap;rounded=0;" parent="1" vertex="1">
          <mxGeometry x="210" y="335" width="60" height="30" as="geometry" />
        </mxCell>
        <mxCell id="btaBWANVYXcahimvtC95-24" value="" style="sketch=0;html=1;aspect=fixed;strokeColor=none;shadow=0;fillColor=#B3B3B3;verticalAlign=top;labelPosition=center;verticalLabelPosition=bottom;shape=mxgraph.gcp2.network;direction=south;" parent="1" vertex="1">
          <mxGeometry x="240" y="600" width="40" height="40" as="geometry" />
        </mxCell>
        <mxCell id="btaBWANVYXcahimvtC95-25" value="" style="sketch=0;html=1;aspect=fixed;strokeColor=none;shadow=0;fillColor=#B3B3B3;verticalAlign=top;labelPosition=center;verticalLabelPosition=bottom;shape=mxgraph.gcp2.network" parent="1" vertex="1">
          <mxGeometry x="320" y="600" width="40" height="40" as="geometry" />
        </mxCell>
        <mxCell id="btaBWANVYXcahimvtC95-26" value="2010" style="text;html=1;align=center;verticalAlign=middle;whiteSpace=wrap;rounded=0;strokeColor=none;fontColor=#B3B3B3;fontStyle=1" parent="1" vertex="1">
          <mxGeometry x="230" y="570" width="60" height="30" as="geometry" />
        </mxCell>
        <mxCell id="btaBWANVYXcahimvtC95-27" value="2011" style="text;html=1;align=center;verticalAlign=middle;whiteSpace=wrap;rounded=0;strokeColor=none;fontColor=#B3B3B3;fontStyle=1" parent="1" vertex="1">
          <mxGeometry x="310" y="570" width="60" height="30" as="geometry" />
        </mxCell>
        <mxCell id="btaBWANVYXcahimvtC95-30" value="" style="sketch=0;html=1;aspect=fixed;strokeColor=none;shadow=0;fillColor=#B3B3B3;verticalAlign=top;labelPosition=center;verticalLabelPosition=bottom;shape=mxgraph.gcp2.network" parent="1" vertex="1">
          <mxGeometry x="400" y="600" width="40" height="40" as="geometry" />
        </mxCell>
        <mxCell id="btaBWANVYXcahimvtC95-31" value="2012" style="text;html=1;align=center;verticalAlign=middle;whiteSpace=wrap;rounded=0;strokeColor=none;fontColor=#B3B3B3;fontStyle=1" parent="1" vertex="1">
          <mxGeometry x="390" y="570" width="60" height="30" as="geometry" />
        </mxCell>
        <mxCell id="btaBWANVYXcahimvtC95-32" value="Snapshot" style="rounded=0;whiteSpace=wrap;html=1;verticalAlign=top;fillColor=none;dashed=1;dashPattern=8 8;" parent="1" vertex="1">
          <mxGeometry x="300" y="550" width="80" height="100" as="geometry" />
        </mxCell>
        <mxCell id="btaBWANVYXcahimvtC95-33" value="..." style="text;html=1;align=center;verticalAlign=middle;whiteSpace=wrap;rounded=0;fontStyle=1" parent="1" vertex="1">
          <mxGeometry x="190" y="605" width="60" height="25" as="geometry" />
        </mxCell>
        <mxCell id="btaBWANVYXcahimvtC95-34" value="..." style="text;html=1;align=center;verticalAlign=middle;whiteSpace=wrap;rounded=0;fontStyle=1" parent="1" vertex="1">
          <mxGeometry x="430" y="605" width="60" height="25" as="geometry" />
        </mxCell>
        <mxCell id="btaBWANVYXcahimvtC95-46" value="" style="sketch=0;html=1;aspect=fixed;strokeColor=none;shadow=0;fillColor=#B3B3B3;verticalAlign=top;labelPosition=center;verticalLabelPosition=bottom;shape=mxgraph.gcp2.network;direction=south;" parent="1" vertex="1">
          <mxGeometry x="560" y="600" width="40" height="40" as="geometry" />
        </mxCell>
        <mxCell id="btaBWANVYXcahimvtC95-47" value="" style="sketch=0;html=1;aspect=fixed;strokeColor=none;shadow=0;fillColor=#B3B3B3;verticalAlign=top;labelPosition=center;verticalLabelPosition=bottom;shape=mxgraph.gcp2.network" parent="1" vertex="1">
          <mxGeometry x="640" y="600" width="40" height="40" as="geometry" />
        </mxCell>
        <mxCell id="btaBWANVYXcahimvtC95-48" value="MinYear" style="text;html=1;align=center;verticalAlign=middle;whiteSpace=wrap;rounded=0;strokeColor=none;fontColor=#B3B3B3;fontStyle=1" parent="1" vertex="1">
          <mxGeometry x="550" y="570" width="60" height="30" as="geometry" />
        </mxCell>
        <mxCell id="btaBWANVYXcahimvtC95-49" value="..." style="text;html=1;align=center;verticalAlign=middle;whiteSpace=wrap;rounded=0;strokeColor=none;fontColor=#B3B3B3;fontStyle=1" parent="1" vertex="1">
          <mxGeometry x="630" y="570" width="60" height="30" as="geometry" />
        </mxCell>
        <mxCell id="btaBWANVYXcahimvtC95-50" value="" style="sketch=0;html=1;aspect=fixed;strokeColor=none;shadow=0;fillColor=#B3B3B3;verticalAlign=top;labelPosition=center;verticalLabelPosition=bottom;shape=mxgraph.gcp2.network" parent="1" vertex="1">
          <mxGeometry x="720" y="600" width="40" height="40" as="geometry" />
        </mxCell>
        <mxCell id="btaBWANVYXcahimvtC95-51" value="MaxYear" style="text;html=1;align=center;verticalAlign=middle;whiteSpace=wrap;rounded=0;strokeColor=none;fontColor=#B3B3B3;fontStyle=1" parent="1" vertex="1">
          <mxGeometry x="710" y="570" width="60" height="30" as="geometry" />
        </mxCell>
        <mxCell id="btaBWANVYXcahimvtC95-54" value="+" style="text;html=1;align=center;verticalAlign=middle;whiteSpace=wrap;rounded=0;fontStyle=1" parent="1" vertex="1">
          <mxGeometry x="590" y="610" width="60" height="20" as="geometry" />
        </mxCell>
        <mxCell id="btaBWANVYXcahimvtC95-55" value="+" style="text;html=1;align=center;verticalAlign=middle;whiteSpace=wrap;rounded=0;fontStyle=1" parent="1" vertex="1">
          <mxGeometry x="670" y="610" width="60" height="20" as="geometry" />
        </mxCell>
        <mxCell id="btaBWANVYXcahimvtC95-57" value="" style="sketch=0;html=1;aspect=fixed;strokeColor=none;shadow=0;fillColor=#B3B3B3;verticalAlign=top;labelPosition=center;verticalLabelPosition=bottom;shape=mxgraph.gcp2.network;direction=south;" parent="1" vertex="1">
          <mxGeometry x="360" y="860" width="40" height="40" as="geometry" />
        </mxCell>
        <mxCell id="btaBWANVYXcahimvtC95-58" value="" style="sketch=0;html=1;aspect=fixed;strokeColor=none;shadow=0;fillColor=#B3B3B3;verticalAlign=top;labelPosition=center;verticalLabelPosition=bottom;shape=mxgraph.gcp2.network" parent="1" vertex="1">
          <mxGeometry x="360" y="920" width="40" height="40" as="geometry" />
        </mxCell>
        <mxCell id="btaBWANVYXcahimvtC95-59" value="2010" style="text;html=1;align=center;verticalAlign=middle;whiteSpace=wrap;rounded=0;strokeColor=none;fontColor=#B3B3B3;fontStyle=1" parent="1" vertex="1">
          <mxGeometry x="400" y="865" width="40" height="30" as="geometry" />
        </mxCell>
        <mxCell id="btaBWANVYXcahimvtC95-60" value="2011" style="text;html=1;align=center;verticalAlign=middle;whiteSpace=wrap;rounded=0;strokeColor=none;fontColor=#B3B3B3;fontStyle=1" parent="1" vertex="1">
          <mxGeometry x="400" y="925" width="40" height="30" as="geometry" />
        </mxCell>
        <mxCell id="btaBWANVYXcahimvtC95-61" value="" style="sketch=0;html=1;aspect=fixed;strokeColor=none;shadow=0;fillColor=#B3B3B3;verticalAlign=top;labelPosition=center;verticalLabelPosition=bottom;shape=mxgraph.gcp2.network" parent="1" vertex="1">
          <mxGeometry x="360" y="980" width="40" height="40" as="geometry" />
        </mxCell>
        <mxCell id="btaBWANVYXcahimvtC95-62" value="2012" style="text;html=1;align=center;verticalAlign=middle;whiteSpace=wrap;rounded=0;strokeColor=none;fontColor=#B3B3B3;fontStyle=1" parent="1" vertex="1">
          <mxGeometry x="400" y="985" width="40" height="30" as="geometry" />
        </mxCell>
        <mxCell id="btaBWANVYXcahimvtC95-63" value="Snapshot" style="rounded=0;whiteSpace=wrap;html=1;verticalAlign=middle;fillColor=none;dashed=1;dashPattern=8 8;align=left;spacingLeft=8;" parent="1" vertex="1">
          <mxGeometry x="290" y="910" width="150" height="60" as="geometry" />
        </mxCell>
        <mxCell id="btaBWANVYXcahimvtC95-64" value="..." style="text;html=1;align=center;verticalAlign=middle;whiteSpace=wrap;rounded=0;fontStyle=1" parent="1" vertex="1">
          <mxGeometry x="370" y="835" width="20" height="25" as="geometry" />
        </mxCell>
        <mxCell id="btaBWANVYXcahimvtC95-65" value="..." style="text;html=1;align=center;verticalAlign=middle;whiteSpace=wrap;rounded=0;fontStyle=1" parent="1" vertex="1">
          <mxGeometry x="370" y="1015" width="20" height="25" as="geometry" />
        </mxCell>
        <mxCell id="btaBWANVYXcahimvtC95-69" value="" style="sketch=0;html=1;aspect=fixed;strokeColor=none;shadow=0;fillColor=#B3B3B3;verticalAlign=top;labelPosition=center;verticalLabelPosition=bottom;shape=mxgraph.gcp2.network;direction=south;" parent="1" vertex="1">
          <mxGeometry x="560" y="860" width="40" height="40" as="geometry" />
        </mxCell>
        <mxCell id="btaBWANVYXcahimvtC95-70" value="" style="sketch=0;html=1;aspect=fixed;strokeColor=none;shadow=0;fillColor=#B3B3B3;verticalAlign=top;labelPosition=center;verticalLabelPosition=bottom;shape=mxgraph.gcp2.network" parent="1" vertex="1">
          <mxGeometry x="560" y="920" width="40" height="40" as="geometry" />
        </mxCell>
        <mxCell id="btaBWANVYXcahimvtC95-71" value="2010" style="text;html=1;align=center;verticalAlign=middle;whiteSpace=wrap;rounded=0;strokeColor=none;fontColor=#B3B3B3;fontStyle=1" parent="1" vertex="1">
          <mxGeometry x="600" y="865" width="40" height="30" as="geometry" />
        </mxCell>
        <mxCell id="btaBWANVYXcahimvtC95-72" value="2011" style="text;html=1;align=center;verticalAlign=middle;whiteSpace=wrap;rounded=0;strokeColor=none;fontColor=#B3B3B3;fontStyle=1" parent="1" vertex="1">
          <mxGeometry x="600" y="925" width="40" height="30" as="geometry" />
        </mxCell>
        <mxCell id="btaBWANVYXcahimvtC95-73" value="" style="sketch=0;html=1;aspect=fixed;strokeColor=none;shadow=0;fillColor=#B3B3B3;verticalAlign=top;labelPosition=center;verticalLabelPosition=bottom;shape=mxgraph.gcp2.network" parent="1" vertex="1">
          <mxGeometry x="560" y="980" width="40" height="40" as="geometry" />
        </mxCell>
        <mxCell id="btaBWANVYXcahimvtC95-74" value="2012" style="text;html=1;align=center;verticalAlign=middle;whiteSpace=wrap;rounded=0;strokeColor=none;fontColor=#B3B3B3;fontStyle=1" parent="1" vertex="1">
          <mxGeometry x="600" y="985" width="40" height="30" as="geometry" />
        </mxCell>
        <mxCell id="btaBWANVYXcahimvtC95-75" value="Time&lt;div&gt;Window&lt;/div&gt;" style="rounded=0;whiteSpace=wrap;html=1;verticalAlign=middle;fillColor=none;dashed=1;dashPattern=8 8;align=left;spacingLeft=8;" parent="1" vertex="1">
          <mxGeometry x="500" y="910" width="140" height="120" as="geometry" />
        </mxCell>
        <mxCell id="btaBWANVYXcahimvtC95-76" value="..." style="text;html=1;align=center;verticalAlign=middle;whiteSpace=wrap;rounded=0;fontStyle=1" parent="1" vertex="1">
          <mxGeometry x="570" y="825" width="20" height="25" as="geometry" />
        </mxCell>
        <mxCell id="btaBWANVYXcahimvtC95-77" value="..." style="text;html=1;align=center;verticalAlign=middle;whiteSpace=wrap;rounded=0;fontStyle=1" parent="1" vertex="1">
          <mxGeometry x="570" y="1025" width="20" height="25" as="geometry" />
        </mxCell>
        <mxCell id="btaBWANVYXcahimvtC95-79" value="+" style="text;html=1;align=center;verticalAlign=middle;whiteSpace=wrap;rounded=0;fontStyle=1" parent="1" vertex="1">
          <mxGeometry x="570" y="960" width="20" height="20" as="geometry" />
        </mxCell>
        <mxCell id="btaBWANVYXcahimvtC95-80" value="" style="sketch=0;html=1;aspect=fixed;strokeColor=none;shadow=0;fillColor=#B3B3B3;verticalAlign=top;labelPosition=center;verticalLabelPosition=bottom;shape=mxgraph.gcp2.network;direction=south;" parent="1" vertex="1">
          <mxGeometry x="760" y="860" width="40" height="40" as="geometry" />
        </mxCell>
        <mxCell id="btaBWANVYXcahimvtC95-81" value="" style="sketch=0;html=1;aspect=fixed;strokeColor=none;shadow=0;fillColor=#B3B3B3;verticalAlign=top;labelPosition=center;verticalLabelPosition=bottom;shape=mxgraph.gcp2.network" parent="1" vertex="1">
          <mxGeometry x="760" y="920" width="40" height="40" as="geometry" />
        </mxCell>
        <mxCell id="btaBWANVYXcahimvtC95-82" value="Year 0" style="text;html=1;align=center;verticalAlign=middle;whiteSpace=wrap;rounded=0;strokeColor=none;fontColor=#B3B3B3;fontStyle=1" parent="1" vertex="1">
          <mxGeometry x="800" y="865" width="40" height="30" as="geometry" />
        </mxCell>
        <mxCell id="btaBWANVYXcahimvtC95-83" value="..." style="text;html=1;align=center;verticalAlign=middle;whiteSpace=wrap;rounded=0;strokeColor=none;fontColor=#B3B3B3;fontStyle=1" parent="1" vertex="1">
          <mxGeometry x="800" y="925" width="40" height="30" as="geometry" />
        </mxCell>
        <mxCell id="btaBWANVYXcahimvtC95-84" value="" style="sketch=0;html=1;aspect=fixed;strokeColor=none;shadow=0;fillColor=#B3B3B3;verticalAlign=top;labelPosition=center;verticalLabelPosition=bottom;shape=mxgraph.gcp2.network" parent="1" vertex="1">
          <mxGeometry x="760" y="980" width="40" height="40" as="geometry" />
        </mxCell>
        <mxCell id="btaBWANVYXcahimvtC95-85" value="Year N" style="text;html=1;align=center;verticalAlign=middle;whiteSpace=wrap;rounded=0;strokeColor=none;fontColor=#B3B3B3;fontStyle=1" parent="1" vertex="1">
          <mxGeometry x="800" y="985" width="40" height="30" as="geometry" />
        </mxCell>
        <mxCell id="btaBWANVYXcahimvtC95-89" value="+" style="text;html=1;align=center;verticalAlign=middle;whiteSpace=wrap;rounded=0;fontStyle=1" parent="1" vertex="1">
          <mxGeometry x="770" y="960" width="20" height="20" as="geometry" />
        </mxCell>
        <mxCell id="btaBWANVYXcahimvtC95-90" value="+" style="text;html=1;align=center;verticalAlign=middle;whiteSpace=wrap;rounded=0;fontStyle=1" parent="1" vertex="1">
          <mxGeometry x="770" y="900" width="20" height="20" as="geometry" />
        </mxCell>
        <mxCell id="btaBWANVYXcahimvtC95-91" value="" style="endArrow=none;html=1;rounded=0;strokeColor=#B3B3B3;" parent="1" edge="1">
          <mxGeometry width="50" height="50" relative="1" as="geometry">
            <mxPoint x="470" y="1050" as="sourcePoint" />
            <mxPoint x="470" y="840" as="targetPoint" />
          </mxGeometry>
        </mxCell>
        <mxCell id="btaBWANVYXcahimvtC95-92" value="" style="endArrow=none;html=1;rounded=0;strokeColor=#B3B3B3;" parent="1" edge="1">
          <mxGeometry width="50" height="50" relative="1" as="geometry">
            <mxPoint x="670" y="1045" as="sourcePoint" />
            <mxPoint x="670" y="835" as="targetPoint" />
          </mxGeometry>
        </mxCell>
        <mxCell id="btaBWANVYXcahimvtC95-95" value="&lt;b style=&quot;font-size: 11px; text-wrap-mode: nowrap;&quot;&gt;2017&lt;/b&gt;&lt;div style=&quot;font-size: 11px; text-wrap-mode: nowrap;&quot;&gt;$ 3mi&lt;/div&gt;" style="text;html=1;align=center;verticalAlign=middle;whiteSpace=wrap;rounded=0;" parent="1" vertex="1">
          <mxGeometry x="640" y="360" width="60" height="30" as="geometry" />
        </mxCell>
        <mxCell id="btaBWANVYXcahimvtC95-96" value="Get latest year &amp;amp;&lt;div&gt;Sum investments&lt;/div&gt;" style="text;html=1;align=center;verticalAlign=middle;whiteSpace=wrap;rounded=0;" parent="1" vertex="1">
          <mxGeometry x="460" y="365" width="100" height="30" as="geometry" />
        </mxCell>
        <mxCell id="btaBWANVYXcahimvtC95-10" value="Node 2" style="ellipse;whiteSpace=wrap;html=1;aspect=fixed;" parent="1" vertex="1">
          <mxGeometry x="700" y="320" width="60" height="60" as="geometry" />
        </mxCell>
        <mxCell id="T4cP6CTTyvv2BIqYkuLx-5" style="rounded=0;orthogonalLoop=1;jettySize=auto;html=1;" edge="1" parent="1" source="T4cP6CTTyvv2BIqYkuLx-1" target="T4cP6CTTyvv2BIqYkuLx-2">
          <mxGeometry relative="1" as="geometry" />
        </mxCell>
        <mxCell id="T4cP6CTTyvv2BIqYkuLx-1" value="VC 1&lt;div&gt;&lt;b&gt;ES&lt;/b&gt;&lt;/div&gt;" style="ellipse;whiteSpace=wrap;html=1;aspect=fixed;" vertex="1" parent="1">
          <mxGeometry x="300" y="-110" width="60" height="60" as="geometry" />
        </mxCell>
        <mxCell id="T4cP6CTTyvv2BIqYkuLx-2" value="Startup 1" style="ellipse;whiteSpace=wrap;html=1;aspect=fixed;fillColor=#f5f5f5;fontColor=#333333;strokeColor=#666666;" vertex="1" parent="1">
          <mxGeometry x="440" y="-30" width="60" height="60" as="geometry" />
        </mxCell>
        <mxCell id="T4cP6CTTyvv2BIqYkuLx-3" value="VC 2&lt;div&gt;ES + LS&lt;/div&gt;" style="ellipse;whiteSpace=wrap;html=1;aspect=fixed;" vertex="1" parent="1">
          <mxGeometry x="300" y="-30" width="60" height="60" as="geometry" />
        </mxCell>
        <mxCell id="T4cP6CTTyvv2BIqYkuLx-4" value="VC 3&lt;div&gt;LS&lt;/div&gt;" style="ellipse;whiteSpace=wrap;html=1;aspect=fixed;" vertex="1" parent="1">
          <mxGeometry x="300" y="50" width="60" height="60" as="geometry" />
        </mxCell>
        <mxCell id="T4cP6CTTyvv2BIqYkuLx-6" style="rounded=0;orthogonalLoop=1;jettySize=auto;html=1;" edge="1" parent="1" source="T4cP6CTTyvv2BIqYkuLx-3" target="T4cP6CTTyvv2BIqYkuLx-2">
          <mxGeometry relative="1" as="geometry">
            <mxPoint x="377" y="-57" as="sourcePoint" />
            <mxPoint x="493" y="-3" as="targetPoint" />
          </mxGeometry>
        </mxCell>
        <mxCell id="T4cP6CTTyvv2BIqYkuLx-7" style="rounded=0;orthogonalLoop=1;jettySize=auto;html=1;" edge="1" parent="1" source="T4cP6CTTyvv2BIqYkuLx-4" target="T4cP6CTTyvv2BIqYkuLx-2">
          <mxGeometry relative="1" as="geometry">
            <mxPoint x="380" y="10" as="sourcePoint" />
            <mxPoint x="490" y="10" as="targetPoint" />
          </mxGeometry>
        </mxCell>
        <mxCell id="T4cP6CTTyvv2BIqYkuLx-8" value="" style="shape=flexArrow;endArrow=classic;html=1;rounded=0;" edge="1" parent="1">
          <mxGeometry width="50" height="50" relative="1" as="geometry">
            <mxPoint x="520" y="-1" as="sourcePoint" />
            <mxPoint x="570" as="targetPoint" />
          </mxGeometry>
        </mxCell>
        <mxCell id="T4cP6CTTyvv2BIqYkuLx-12" style="edgeStyle=none;shape=connector;rounded=0;orthogonalLoop=1;jettySize=auto;html=1;strokeColor=default;align=center;verticalAlign=middle;fontFamily=Helvetica;fontSize=11;fontColor=default;labelBackgroundColor=default;endArrow=none;startFill=0;" edge="1" parent="1" source="T4cP6CTTyvv2BIqYkuLx-9" target="T4cP6CTTyvv2BIqYkuLx-10">
          <mxGeometry relative="1" as="geometry" />
        </mxCell>
        <mxCell id="T4cP6CTTyvv2BIqYkuLx-9" value="VC 1&lt;div&gt;ES&lt;/div&gt;" style="ellipse;whiteSpace=wrap;html=1;aspect=fixed;" vertex="1" parent="1">
          <mxGeometry x="600" y="-110" width="60" height="60" as="geometry" />
        </mxCell>
        <mxCell id="T4cP6CTTyvv2BIqYkuLx-10" value="VC 2&lt;div&gt;LS&lt;/div&gt;" style="ellipse;whiteSpace=wrap;html=1;aspect=fixed;" vertex="1" parent="1">
          <mxGeometry x="720" y="-110" width="60" height="60" as="geometry" />
        </mxCell>
        <mxCell id="T4cP6CTTyvv2BIqYkuLx-11" value="VC 3&lt;div&gt;LS&lt;/div&gt;" style="ellipse;whiteSpace=wrap;html=1;aspect=fixed;" vertex="1" parent="1">
          <mxGeometry x="720" y="-30" width="60" height="60" as="geometry" />
        </mxCell>
        <mxCell id="T4cP6CTTyvv2BIqYkuLx-13" value="VC 2&lt;div&gt;ES&lt;/div&gt;" style="ellipse;whiteSpace=wrap;html=1;aspect=fixed;" vertex="1" parent="1">
          <mxGeometry x="600" y="-30" width="60" height="60" as="geometry" />
        </mxCell>
        <mxCell id="T4cP6CTTyvv2BIqYkuLx-14" value="VC 3&lt;div&gt;LS&lt;/div&gt;" style="ellipse;whiteSpace=wrap;html=1;aspect=fixed;" vertex="1" parent="1">
          <mxGeometry x="720" y="50" width="60" height="60" as="geometry" />
        </mxCell>
        <mxCell id="T4cP6CTTyvv2BIqYkuLx-15" value="VC 3&lt;div&gt;ES&lt;/div&gt;" style="ellipse;whiteSpace=wrap;html=1;aspect=fixed;" vertex="1" parent="1">
          <mxGeometry x="600" y="50" width="60" height="60" as="geometry" />
        </mxCell>
        <mxCell id="T4cP6CTTyvv2BIqYkuLx-16" style="edgeStyle=none;shape=connector;rounded=0;orthogonalLoop=1;jettySize=auto;html=1;strokeColor=default;align=center;verticalAlign=middle;fontFamily=Helvetica;fontSize=11;fontColor=default;labelBackgroundColor=default;endArrow=none;startFill=0;" edge="1" parent="1" source="T4cP6CTTyvv2BIqYkuLx-13" target="T4cP6CTTyvv2BIqYkuLx-11">
          <mxGeometry relative="1" as="geometry">
            <mxPoint x="670" y="-70" as="sourcePoint" />
            <mxPoint x="730" y="-70" as="targetPoint" />
          </mxGeometry>
        </mxCell>
        <mxCell id="T4cP6CTTyvv2BIqYkuLx-17" style="edgeStyle=none;shape=connector;rounded=0;orthogonalLoop=1;jettySize=auto;html=1;strokeColor=default;align=center;verticalAlign=middle;fontFamily=Helvetica;fontSize=11;fontColor=default;labelBackgroundColor=default;endArrow=none;startFill=0;" edge="1" parent="1" source="T4cP6CTTyvv2BIqYkuLx-15" target="T4cP6CTTyvv2BIqYkuLx-14">
          <mxGeometry relative="1" as="geometry">
            <mxPoint x="670" y="10" as="sourcePoint" />
            <mxPoint x="730" y="10" as="targetPoint" />
          </mxGeometry>
        </mxCell>
        <mxCell id="T4cP6CTTyvv2BIqYkuLx-18" value="On network theory" style="text;html=1;align=center;verticalAlign=middle;whiteSpace=wrap;rounded=0;fontFamily=Helvetica;fontSize=11;fontColor=default;labelBackgroundColor=default;" vertex="1" parent="1">
          <mxGeometry x="430" y="-580" width="60" height="30" as="geometry" />
        </mxCell>
        <mxCell id="T4cP6CTTyvv2BIqYkuLx-19" value="Negotiation network" style="text;html=1;align=center;verticalAlign=middle;whiteSpace=wrap;rounded=0;fontFamily=Helvetica;fontSize=11;fontColor=default;labelBackgroundColor=default;" vertex="1" parent="1">
          <mxGeometry x="410" y="-70" width="130" height="30" as="geometry" />
        </mxCell>
        <mxCell id="T4cP6CTTyvv2BIqYkuLx-20" value="&lt;div&gt;&lt;b style=&quot;background-color: light-dark(#ffffff, var(--ge-dark-color, #121212)); color: light-dark(rgb(0, 0, 0), rgb(255, 255, 255));&quot;&gt;Stage 2:&amp;nbsp;&lt;/b&gt;&lt;span style=&quot;background-color: light-dark(#ffffff, var(--ge-dark-color, #121212)); color: light-dark(rgb(0, 0, 0), rgb(255, 255, 255));&quot;&gt;Syndicated investment network&lt;/span&gt;&lt;/div&gt;" style="text;html=1;align=center;verticalAlign=middle;whiteSpace=wrap;rounded=0;fontFamily=Helvetica;fontSize=11;fontColor=default;labelBackgroundColor=default;" vertex="1" parent="1">
          <mxGeometry x="270" y="-510" width="160" height="30" as="geometry" />
        </mxCell>
        <mxCell id="T4cP6CTTyvv2BIqYkuLx-32" value="Early stage VC" style="ellipse;aspect=fixed;labelPosition=right;verticalLabelPosition=middle;align=left;verticalAlign=middle;fillColor=#00CC00;strokeColor=#666666;html=1;spacingLeft=3;fontColor=#333333;fontSize=10;" vertex="1" parent="1">
          <mxGeometry x="285" y="-237" width="14" height="14" as="geometry" />
        </mxCell>
        <mxCell id="T4cP6CTTyvv2BIqYkuLx-33" value="Late Stage" style="ellipse;whiteSpace=wrap;html=1;aspect=fixed;labelPosition=right;verticalLabelPosition=middle;align=left;verticalAlign=middle;fillColor=#007FFF;strokeColor=#666666;" vertex="1" parent="1">
          <mxGeometry x="300" y="-630" width="20" height="20" as="geometry" />
        </mxCell>
        <mxCell id="T4cP6CTTyvv2BIqYkuLx-51" value="Late stage VC" style="ellipse;aspect=fixed;labelPosition=right;verticalLabelPosition=middle;align=left;verticalAlign=middle;fillColor=#007FFF;strokeColor=#666666;html=1;spacingLeft=3;fontColor=#333333;fontSize=10;" vertex="1" parent="1">
          <mxGeometry x="391" y="-237" width="14" height="14" as="geometry" />
        </mxCell>
        <mxCell id="T4cP6CTTyvv2BIqYkuLx-53" value="Company" style="ellipse;aspect=fixed;labelPosition=right;verticalLabelPosition=middle;align=left;verticalAlign=middle;fillColor=#f5f5f5;strokeColor=#666666;html=1;fontColor=#333333;spacingLeft=3;fontSize=10;" vertex="1" parent="1">
          <mxGeometry x="491" y="-237" width="14" height="14" as="geometry" />
        </mxCell>
        <mxCell id="T4cP6CTTyvv2BIqYkuLx-55" value="&lt;span style=&quot;text-align: left;&quot;&gt;&lt;b&gt;Stage 3:&amp;nbsp;&lt;/b&gt;Syndicated investment bipartite network&amp;nbsp;with investors unionization grouped by investment stage&lt;/span&gt;" style="text;html=1;align=center;verticalAlign=middle;whiteSpace=wrap;rounded=0;fontFamily=Helvetica;fontSize=11;fontColor=default;labelBackgroundColor=default;" vertex="1" parent="1">
          <mxGeometry x="507.5" y="-510" width="255" height="30" as="geometry" />
        </mxCell>
        <mxCell id="T4cP6CTTyvv2BIqYkuLx-57" value="" style="shape=flexArrow;endArrow=classic;html=1;rounded=0;" edge="1" parent="1">
          <mxGeometry width="50" height="50" relative="1" as="geometry">
            <mxPoint x="420" y="-360.28999999999996" as="sourcePoint" />
            <mxPoint x="475" y="-360.28999999999996" as="targetPoint" />
          </mxGeometry>
        </mxCell>
        <mxCell id="T4cP6CTTyvv2BIqYkuLx-58" value="&lt;div&gt;&lt;b&gt;Stage 1:&lt;/b&gt;&amp;nbsp;&lt;span style=&quot;background-color: light-dark(#ffffff, var(--ge-dark-color, #121212)); color: light-dark(rgb(0, 0, 0), rgb(255, 255, 255));&quot;&gt;Crunchbase investments data&lt;/span&gt;&lt;/div&gt;" style="text;html=1;align=center;verticalAlign=middle;whiteSpace=wrap;rounded=0;fontFamily=Helvetica;fontSize=11;fontColor=default;labelBackgroundColor=default;" vertex="1" parent="1">
          <mxGeometry x="30" y="-510" width="160" height="30" as="geometry" />
        </mxCell>
        <mxCell id="T4cP6CTTyvv2BIqYkuLx-73" value="" style="shape=flexArrow;endArrow=classic;html=1;rounded=0;" edge="1" parent="1">
          <mxGeometry width="50" height="50" relative="1" as="geometry">
            <mxPoint x="200" y="-360.56999999999994" as="sourcePoint" />
            <mxPoint x="255" y="-360.56999999999994" as="targetPoint" />
          </mxGeometry>
        </mxCell>
        <mxCell id="T4cP6CTTyvv2BIqYkuLx-75" value="" style="group" vertex="1" connectable="0" parent="1">
          <mxGeometry x="500" y="-470" width="270" height="210" as="geometry" />
        </mxCell>
        <mxCell id="T4cP6CTTyvv2BIqYkuLx-49" style="edgeStyle=none;shape=connector;rounded=0;orthogonalLoop=1;jettySize=auto;html=1;strokeColor=default;align=center;verticalAlign=middle;fontFamily=Helvetica;fontSize=11;fontColor=default;labelBackgroundColor=default;startFill=0;endArrow=none;" edge="1" parent="T4cP6CTTyvv2BIqYkuLx-75" source="T4cP6CTTyvv2BIqYkuLx-47" target="T4cP6CTTyvv2BIqYkuLx-48">
          <mxGeometry relative="1" as="geometry" />
        </mxCell>
        <mxCell id="T4cP6CTTyvv2BIqYkuLx-47" value="" style="ellipse;whiteSpace=wrap;html=1;aspect=fixed;strokeColor=#666666;" vertex="1" parent="T4cP6CTTyvv2BIqYkuLx-75">
          <mxGeometry width="210" height="210" as="geometry" />
        </mxCell>
        <mxCell id="T4cP6CTTyvv2BIqYkuLx-78" value="" style="edgeStyle=none;shape=connector;rounded=0;orthogonalLoop=1;jettySize=auto;html=1;strokeColor=default;align=center;verticalAlign=middle;fontFamily=Helvetica;fontSize=11;fontColor=default;labelBackgroundColor=default;startFill=0;endArrow=none;" edge="1" parent="T4cP6CTTyvv2BIqYkuLx-75" source="T4cP6CTTyvv2BIqYkuLx-35" target="T4cP6CTTyvv2BIqYkuLx-40">
          <mxGeometry relative="1" as="geometry" />
        </mxCell>
        <mxCell id="T4cP6CTTyvv2BIqYkuLx-35" value="VC1" style="ellipse;whiteSpace=wrap;html=1;aspect=fixed;labelPosition=center;verticalLabelPosition=top;align=center;verticalAlign=bottom;fillColor=#00CC00;strokeColor=#666666;" vertex="1" parent="T4cP6CTTyvv2BIqYkuLx-75">
          <mxGeometry x="50" y="40" width="20" height="20" as="geometry" />
        </mxCell>
        <mxCell id="T4cP6CTTyvv2BIqYkuLx-37" value="VC2" style="ellipse;whiteSpace=wrap;html=1;aspect=fixed;labelPosition=center;verticalLabelPosition=top;align=center;verticalAlign=bottom;fillColor=#00CC00;strokeColor=#666666;" vertex="1" parent="T4cP6CTTyvv2BIqYkuLx-75">
          <mxGeometry x="50" y="100" width="20" height="20" as="geometry" />
        </mxCell>
        <mxCell id="T4cP6CTTyvv2BIqYkuLx-38" value="VC3" style="ellipse;whiteSpace=wrap;html=1;aspect=fixed;labelPosition=center;verticalLabelPosition=top;align=center;verticalAlign=bottom;fillColor=#00CC00;strokeColor=#666666;" vertex="1" parent="T4cP6CTTyvv2BIqYkuLx-75">
          <mxGeometry x="50" y="160" width="20" height="20" as="geometry" />
        </mxCell>
        <mxCell id="T4cP6CTTyvv2BIqYkuLx-40" value="VC2" style="ellipse;whiteSpace=wrap;html=1;aspect=fixed;labelPosition=center;verticalLabelPosition=top;align=center;verticalAlign=bottom;fillColor=#007FFF;strokeColor=#666666;" vertex="1" parent="T4cP6CTTyvv2BIqYkuLx-75">
          <mxGeometry x="140" y="40" width="20" height="20" as="geometry" />
        </mxCell>
        <mxCell id="T4cP6CTTyvv2BIqYkuLx-41" value="VC3" style="ellipse;whiteSpace=wrap;html=1;aspect=fixed;labelPosition=center;verticalLabelPosition=top;align=center;verticalAlign=bottom;fillColor=#007FFF;strokeColor=#666666;" vertex="1" parent="T4cP6CTTyvv2BIqYkuLx-75">
          <mxGeometry x="140" y="100" width="20" height="20" as="geometry" />
        </mxCell>
        <mxCell id="T4cP6CTTyvv2BIqYkuLx-42" value="VC1" style="ellipse;whiteSpace=wrap;html=1;aspect=fixed;labelPosition=center;verticalLabelPosition=top;align=center;verticalAlign=bottom;fillColor=#007FFF;strokeColor=#666666;" vertex="1" parent="T4cP6CTTyvv2BIqYkuLx-75">
          <mxGeometry x="140" y="160" width="20" height="20" as="geometry" />
        </mxCell>
        <mxCell id="T4cP6CTTyvv2BIqYkuLx-43" style="rounded=0;orthogonalLoop=1;jettySize=auto;html=1;labelPosition=center;verticalLabelPosition=top;align=center;verticalAlign=bottom;endArrow=none;startFill=0;strokeColor=#666666;" edge="1" parent="T4cP6CTTyvv2BIqYkuLx-75" source="T4cP6CTTyvv2BIqYkuLx-37" target="T4cP6CTTyvv2BIqYkuLx-41">
          <mxGeometry relative="1" as="geometry">
            <mxPoint x="70" y="109.71999999999997" as="sourcePoint" />
            <mxPoint x="145" y="109.71999999999997" as="targetPoint" />
          </mxGeometry>
        </mxCell>
        <mxCell id="T4cP6CTTyvv2BIqYkuLx-44" style="rounded=0;orthogonalLoop=1;jettySize=auto;html=1;labelPosition=center;verticalLabelPosition=top;align=center;verticalAlign=bottom;endArrow=none;startFill=0;strokeColor=#666666;" edge="1" parent="T4cP6CTTyvv2BIqYkuLx-75">
          <mxGeometry relative="1" as="geometry">
            <mxPoint x="70" y="49.860000000000014" as="sourcePoint" />
            <mxPoint x="140" y="49.860000000000014" as="targetPoint" />
          </mxGeometry>
        </mxCell>
        <mxCell id="T4cP6CTTyvv2BIqYkuLx-45" style="rounded=0;orthogonalLoop=1;jettySize=auto;html=1;labelPosition=center;verticalLabelPosition=top;align=center;verticalAlign=bottom;endArrow=none;startFill=0;strokeColor=#666666;" edge="1" parent="T4cP6CTTyvv2BIqYkuLx-75">
          <mxGeometry relative="1" as="geometry">
            <mxPoint x="70" y="169.86" as="sourcePoint" />
            <mxPoint x="140" y="169.86" as="targetPoint" />
          </mxGeometry>
        </mxCell>
        <mxCell id="T4cP6CTTyvv2BIqYkuLx-48" value="E1" style="ellipse;whiteSpace=wrap;html=1;aspect=fixed;fillColor=#f5f5f5;fontColor=#333333;strokeColor=#666666;labelPosition=center;verticalLabelPosition=top;align=center;verticalAlign=bottom;" vertex="1" parent="T4cP6CTTyvv2BIqYkuLx-75">
          <mxGeometry x="250" y="96" width="20" height="20" as="geometry" />
        </mxCell>
        <mxCell id="T4cP6CTTyvv2BIqYkuLx-79" style="rounded=0;orthogonalLoop=1;jettySize=auto;html=1;labelPosition=center;verticalLabelPosition=top;align=center;verticalAlign=bottom;endArrow=none;startFill=0;strokeColor=#666666;" edge="1" parent="T4cP6CTTyvv2BIqYkuLx-75" source="T4cP6CTTyvv2BIqYkuLx-35" target="T4cP6CTTyvv2BIqYkuLx-41">
          <mxGeometry relative="1" as="geometry">
            <mxPoint x="80" y="59.860000000000014" as="sourcePoint" />
            <mxPoint x="150" y="59.860000000000014" as="targetPoint" />
          </mxGeometry>
        </mxCell>
        <mxCell id="T4cP6CTTyvv2BIqYkuLx-80" style="rounded=0;orthogonalLoop=1;jettySize=auto;html=1;labelPosition=center;verticalLabelPosition=top;align=center;verticalAlign=bottom;endArrow=none;startFill=0;strokeColor=#666666;" edge="1" parent="T4cP6CTTyvv2BIqYkuLx-75" source="T4cP6CTTyvv2BIqYkuLx-37" target="T4cP6CTTyvv2BIqYkuLx-42">
          <mxGeometry relative="1" as="geometry">
            <mxPoint x="78" y="66" as="sourcePoint" />
            <mxPoint x="152" y="114" as="targetPoint" />
          </mxGeometry>
        </mxCell>
        <mxCell id="T4cP6CTTyvv2BIqYkuLx-81" style="rounded=0;orthogonalLoop=1;jettySize=auto;html=1;labelPosition=center;verticalLabelPosition=top;align=center;verticalAlign=bottom;endArrow=none;startFill=0;strokeColor=#666666;" edge="1" parent="T4cP6CTTyvv2BIqYkuLx-75" source="T4cP6CTTyvv2BIqYkuLx-38" target="T4cP6CTTyvv2BIqYkuLx-40">
          <mxGeometry relative="1" as="geometry">
            <mxPoint x="78" y="126" as="sourcePoint" />
            <mxPoint x="152" y="174" as="targetPoint" />
          </mxGeometry>
        </mxCell>
        <mxCell id="T4cP6CTTyvv2BIqYkuLx-76" value="" style="group" vertex="1" connectable="0" parent="1">
          <mxGeometry x="290" y="-430" width="110" height="140" as="geometry" />
        </mxCell>
        <mxCell id="T4cP6CTTyvv2BIqYkuLx-21" style="rounded=0;orthogonalLoop=1;jettySize=auto;html=1;labelPosition=center;verticalLabelPosition=top;align=center;verticalAlign=bottom;endArrow=none;startFill=0;strokeColor=#666666;" edge="1" parent="T4cP6CTTyvv2BIqYkuLx-76" source="T4cP6CTTyvv2BIqYkuLx-22" target="T4cP6CTTyvv2BIqYkuLx-23">
          <mxGeometry relative="1" as="geometry" />
        </mxCell>
        <mxCell id="T4cP6CTTyvv2BIqYkuLx-22" value="VC1" style="ellipse;whiteSpace=wrap;html=1;aspect=fixed;labelPosition=center;verticalLabelPosition=top;align=center;verticalAlign=bottom;fillColor=#00CC00;strokeColor=#666666;" vertex="1" parent="T4cP6CTTyvv2BIqYkuLx-76">
          <mxGeometry width="20" height="20" as="geometry" />
        </mxCell>
        <mxCell id="T4cP6CTTyvv2BIqYkuLx-23" value="E1" style="ellipse;whiteSpace=wrap;html=1;aspect=fixed;fillColor=#f5f5f5;fontColor=#333333;strokeColor=#666666;labelPosition=center;verticalLabelPosition=top;align=center;verticalAlign=bottom;" vertex="1" parent="T4cP6CTTyvv2BIqYkuLx-76">
          <mxGeometry x="90" y="60" width="20" height="20" as="geometry" />
        </mxCell>
        <mxCell id="T4cP6CTTyvv2BIqYkuLx-25" value="VC3" style="ellipse;whiteSpace=wrap;html=1;aspect=fixed;labelPosition=center;verticalLabelPosition=top;align=center;verticalAlign=bottom;fillColor=#007FFF;strokeColor=#666666;" vertex="1" parent="T4cP6CTTyvv2BIqYkuLx-76">
          <mxGeometry y="120" width="20" height="20" as="geometry" />
        </mxCell>
        <mxCell id="T4cP6CTTyvv2BIqYkuLx-26" style="rounded=0;orthogonalLoop=1;jettySize=auto;html=1;labelPosition=center;verticalLabelPosition=top;align=center;verticalAlign=bottom;endArrow=none;startFill=0;strokeColor=#666666;" edge="1" parent="T4cP6CTTyvv2BIqYkuLx-76" target="T4cP6CTTyvv2BIqYkuLx-23">
          <mxGeometry relative="1" as="geometry">
            <mxPoint x="15" y="70" as="sourcePoint" />
            <mxPoint x="173" y="57" as="targetPoint" />
          </mxGeometry>
        </mxCell>
        <mxCell id="T4cP6CTTyvv2BIqYkuLx-27" style="rounded=0;orthogonalLoop=1;jettySize=auto;html=1;labelPosition=center;verticalLabelPosition=top;align=center;verticalAlign=bottom;endArrow=none;startFill=0;strokeColor=#666666;" edge="1" parent="T4cP6CTTyvv2BIqYkuLx-76" source="T4cP6CTTyvv2BIqYkuLx-25" target="T4cP6CTTyvv2BIqYkuLx-23">
          <mxGeometry relative="1" as="geometry">
            <mxPoint x="60" y="70" as="sourcePoint" />
            <mxPoint x="170" y="70" as="targetPoint" />
          </mxGeometry>
        </mxCell>
        <mxCell id="T4cP6CTTyvv2BIqYkuLx-30" value="VC2" style="verticalLabelPosition=top;verticalAlign=bottom;html=1;shape=mxgraph.basic.half_circle;fontFamily=Helvetica;fontSize=11;fontColor=default;labelBackgroundColor=default;aspect=fixed;fillColor=#007FFF;labelPosition=center;align=center;spacingBottom=10;strokeColor=#666666;" vertex="1" parent="T4cP6CTTyvv2BIqYkuLx-76">
          <mxGeometry y="70" width="20" height="10" as="geometry" />
        </mxCell>
        <mxCell id="T4cP6CTTyvv2BIqYkuLx-31" value="" style="verticalLabelPosition=bottom;verticalAlign=top;html=1;shape=mxgraph.basic.half_circle;fontFamily=Helvetica;fontSize=11;fontColor=default;labelBackgroundColor=default;aspect=fixed;fillColor=#00CC00;rotation=-180;flipV=0;flipH=1;direction=east;strokeColor=#666666;" vertex="1" parent="T4cP6CTTyvv2BIqYkuLx-76">
          <mxGeometry y="60" width="20" height="10" as="geometry" />
        </mxCell>
        <mxCell id="T4cP6CTTyvv2BIqYkuLx-77" value="" style="group" vertex="1" connectable="0" parent="1">
          <mxGeometry x="55" y="-430" width="110" height="140" as="geometry" />
        </mxCell>
        <mxCell id="T4cP6CTTyvv2BIqYkuLx-59" value="VC1" style="ellipse;whiteSpace=wrap;html=1;aspect=fixed;labelPosition=center;verticalLabelPosition=top;align=center;verticalAlign=bottom;fillColor=#00CC00;strokeColor=#666666;" vertex="1" parent="T4cP6CTTyvv2BIqYkuLx-77">
          <mxGeometry width="20" height="20" as="geometry" />
        </mxCell>
        <mxCell id="T4cP6CTTyvv2BIqYkuLx-60" value="VC2" style="ellipse;whiteSpace=wrap;html=1;aspect=fixed;labelPosition=center;verticalLabelPosition=top;align=center;verticalAlign=bottom;fillColor=#00CC00;strokeColor=#666666;" vertex="1" parent="T4cP6CTTyvv2BIqYkuLx-77">
          <mxGeometry y="40" width="20" height="20" as="geometry" />
        </mxCell>
        <mxCell id="T4cP6CTTyvv2BIqYkuLx-61" value="VC3" style="ellipse;whiteSpace=wrap;html=1;aspect=fixed;labelPosition=center;verticalLabelPosition=top;align=center;verticalAlign=bottom;fillColor=#007FFF;strokeColor=#666666;" vertex="1" parent="T4cP6CTTyvv2BIqYkuLx-77">
          <mxGeometry y="120" width="20" height="20" as="geometry" />
        </mxCell>
        <mxCell id="T4cP6CTTyvv2BIqYkuLx-62" value="E1" style="ellipse;whiteSpace=wrap;html=1;aspect=fixed;labelPosition=center;verticalLabelPosition=top;align=center;verticalAlign=bottom;fillColor=#f5f5f5;strokeColor=#666666;fontColor=#333333;" vertex="1" parent="T4cP6CTTyvv2BIqYkuLx-77">
          <mxGeometry x="90" width="20" height="20" as="geometry" />
        </mxCell>
        <mxCell id="T4cP6CTTyvv2BIqYkuLx-63" value="E1" style="ellipse;whiteSpace=wrap;html=1;aspect=fixed;labelPosition=center;verticalLabelPosition=top;align=center;verticalAlign=bottom;fillColor=#f5f5f5;strokeColor=#666666;fontColor=#333333;" vertex="1" parent="T4cP6CTTyvv2BIqYkuLx-77">
          <mxGeometry x="90" y="40" width="20" height="20" as="geometry" />
        </mxCell>
        <mxCell id="T4cP6CTTyvv2BIqYkuLx-64" value="E1" style="ellipse;whiteSpace=wrap;html=1;aspect=fixed;labelPosition=center;verticalLabelPosition=top;align=center;verticalAlign=bottom;fillColor=#f5f5f5;strokeColor=#666666;fontColor=#333333;" vertex="1" parent="T4cP6CTTyvv2BIqYkuLx-77">
          <mxGeometry x="90" y="120" width="20" height="20" as="geometry" />
        </mxCell>
        <mxCell id="T4cP6CTTyvv2BIqYkuLx-65" style="rounded=0;orthogonalLoop=1;jettySize=auto;html=1;labelPosition=center;verticalLabelPosition=top;align=center;verticalAlign=bottom;endArrow=none;startFill=0;strokeColor=#666666;" edge="1" parent="T4cP6CTTyvv2BIqYkuLx-77" source="T4cP6CTTyvv2BIqYkuLx-60" target="T4cP6CTTyvv2BIqYkuLx-63">
          <mxGeometry relative="1" as="geometry">
            <mxPoint x="20" y="49.71999999999997" as="sourcePoint" />
            <mxPoint x="95" y="49.71999999999997" as="targetPoint" />
          </mxGeometry>
        </mxCell>
        <mxCell id="T4cP6CTTyvv2BIqYkuLx-66" style="rounded=0;orthogonalLoop=1;jettySize=auto;html=1;labelPosition=center;verticalLabelPosition=top;align=center;verticalAlign=bottom;endArrow=none;startFill=0;strokeColor=#666666;" edge="1" parent="T4cP6CTTyvv2BIqYkuLx-77">
          <mxGeometry relative="1" as="geometry">
            <mxPoint x="20" y="9.860000000000014" as="sourcePoint" />
            <mxPoint x="90" y="9.860000000000014" as="targetPoint" />
          </mxGeometry>
        </mxCell>
        <mxCell id="T4cP6CTTyvv2BIqYkuLx-67" style="rounded=0;orthogonalLoop=1;jettySize=auto;html=1;labelPosition=center;verticalLabelPosition=top;align=center;verticalAlign=bottom;endArrow=none;startFill=0;strokeColor=#666666;" edge="1" parent="T4cP6CTTyvv2BIqYkuLx-77">
          <mxGeometry relative="1" as="geometry">
            <mxPoint x="20" y="129.86" as="sourcePoint" />
            <mxPoint x="90" y="129.86" as="targetPoint" />
          </mxGeometry>
        </mxCell>
        <mxCell id="T4cP6CTTyvv2BIqYkuLx-70" value="VC2" style="ellipse;whiteSpace=wrap;html=1;aspect=fixed;labelPosition=center;verticalLabelPosition=top;align=center;verticalAlign=bottom;fillColor=#007FFF;strokeColor=#666666;" vertex="1" parent="T4cP6CTTyvv2BIqYkuLx-77">
          <mxGeometry y="80" width="20" height="20" as="geometry" />
        </mxCell>
        <mxCell id="T4cP6CTTyvv2BIqYkuLx-71" value="E1" style="ellipse;whiteSpace=wrap;html=1;aspect=fixed;labelPosition=center;verticalLabelPosition=top;align=center;verticalAlign=bottom;fillColor=#f5f5f5;strokeColor=#666666;fontColor=#333333;" vertex="1" parent="T4cP6CTTyvv2BIqYkuLx-77">
          <mxGeometry x="90" y="80" width="20" height="20" as="geometry" />
        </mxCell>
        <mxCell id="T4cP6CTTyvv2BIqYkuLx-72" style="rounded=0;orthogonalLoop=1;jettySize=auto;html=1;labelPosition=center;verticalLabelPosition=top;align=center;verticalAlign=bottom;endArrow=none;startFill=0;strokeColor=#666666;" edge="1" parent="T4cP6CTTyvv2BIqYkuLx-77" source="T4cP6CTTyvv2BIqYkuLx-70" target="T4cP6CTTyvv2BIqYkuLx-71">
          <mxGeometry relative="1" as="geometry">
            <mxPoint x="20" y="89.71999999999997" as="sourcePoint" />
            <mxPoint x="95" y="89.71999999999997" as="targetPoint" />
          </mxGeometry>
        </mxCell>
      </root>
    </mxGraphModel>
  </diagram>
</mxfile>
